<svg id="eJ5eaxShKpf1" xmlns="http://www.w3.org/2000/svg" xmlns:xlink="http://www.w3.org/1999/xlink"
    viewBox="0 0 300 300" shape-rendering="geometricPrecision" text-rendering="geometricPrecision">
    <g transform="matrix(1.270372 0 0 1.224188-79.146209-74.587264)">
        <rect width="124.102689" height="95.632072" rx="5" ry="5"
            transform="translate(88.126888 102.183964)" fill="#fff" stroke="#ececec" />
        <line x1="-62.051344" y1="0.206281" x2="62.051345" y2="-0.20628"
            transform="translate(150 113.787717)" fill="none" stroke="#ececec" />
        <rect width="141.504946" height="5.546468" rx="1" ry="1"
            transform="matrix(.657095 0 0 1 103.687137 189.002096)" fill="red" stroke-width="0" />
        <line x1="-62.051344" y1="0.206281" x2="62.051345" y2="-0.20628"
            transform="translate(150 185.440417)" fill="none" stroke="#ececec" />
        <ellipse rx="30" ry="30" transform="matrix(.097575 0 0 0.097575 188.275013 108.106081)"
            fill="red" stroke-width="0" />
        <ellipse rx="30" ry="30" transform="matrix(.097575 0 0 0.097575 204.721936 108.106081)"
            fill="red" stroke-width="0" />
        <ellipse rx="30" ry="30" transform="matrix(.097575 0 0 0.097575 196.491026 108.106081)"
            fill="red" stroke="#ececec" />
        <rect width="146.471867" height="20.731038" rx="1" ry="1"
            transform="matrix(.637246 0 0 1 103.508927 124.30493)" fill="red" stroke-width="0" />
        <rect width="146.471867" height="20.731038" rx="1" ry="1"
            transform="matrix(.637246 0 0 1 103.508927 154.08434)" fill="red" stroke-width="0" />
    </g>
    <g transform="matrix(1.270372 0 0 1.224188-1.091494 10.664295)">
        <rect width="124.102689" height="95.632072" rx="5" ry="5"
            transform="translate(88.126888 102.183964)" fill="#fff" stroke="#ececec" />
        <line x1="-62.051344" y1="0.206281" x2="62.051345" y2="-0.20628"
            transform="translate(150 113.787717)" fill="none" stroke="#ececec" />
        <rect width="141.504946" height="5.546468" rx="1" ry="1"
            transform="matrix(.657095 0 0 1 103.687137 189.002096)" fill="red" stroke-width="0" />
        <line x1="-62.051344" y1="0.206281" x2="62.051345" y2="-0.20628"
            transform="translate(150 185.440417)" fill="none" stroke="#ececec" />
        <ellipse rx="30" ry="30" transform="matrix(.097575 0 0 0.097575 188.275013 108.106081)"
            fill="red" stroke-width="0" />
        <ellipse rx="30" ry="30" transform="matrix(.097575 0 0 0.097575 204.721936 108.106081)"
            fill="red" stroke-width="0" />
        <ellipse rx="30" ry="30" transform="matrix(.097575 0 0 0.097575 196.491026 108.106081)"
            fill="red" stroke="#ececec" />
        <rect width="146.471867" height="20.731038" rx="1" ry="1"
            transform="matrix(.637246 0 0 1 103.508927 124.30493)" fill="red" stroke-width="0" />
        <rect width="146.471867" height="20.731038" rx="1" ry="1"
            transform="matrix(.637246 0 0 1 103.508927 154.08434)" fill="red" stroke-width="0" />
    </g>
</svg>